<mxfile host="app.diagrams.net" agent="Mozilla/5.0 (Windows NT 10.0; Win64; x64) AppleWebKit/537.36 (KHTML, like Gecko) Chrome/131.0.0.0 Safari/537.36" version="25.0.1">
  <diagram name="หน้า-1" id="0l9Uky92ppwngndfQq2N">
    <mxGraphModel dx="1050" dy="1699" grid="1" gridSize="10" guides="1" tooltips="1" connect="1" arrows="1" fold="1" page="1" pageScale="1" pageWidth="827" pageHeight="1169" math="0" shadow="0">
      <root>
        <mxCell id="0" />
        <mxCell id="1" parent="0" />
        <mxCell id="HpHNAsF5RzF4vIWNpaZh-3" value="" style="edgeStyle=orthogonalEdgeStyle;rounded=0;orthogonalLoop=1;jettySize=auto;html=1;" edge="1" parent="1" source="HpHNAsF5RzF4vIWNpaZh-1" target="HpHNAsF5RzF4vIWNpaZh-2">
          <mxGeometry relative="1" as="geometry" />
        </mxCell>
        <mxCell id="HpHNAsF5RzF4vIWNpaZh-1" value="Start" style="ellipse;whiteSpace=wrap;html=1;" vertex="1" parent="1">
          <mxGeometry x="354" y="-1160" width="120" height="80" as="geometry" />
        </mxCell>
        <mxCell id="HpHNAsF5RzF4vIWNpaZh-5" value="" style="edgeStyle=orthogonalEdgeStyle;rounded=0;orthogonalLoop=1;jettySize=auto;html=1;" edge="1" parent="1" source="HpHNAsF5RzF4vIWNpaZh-2" target="HpHNAsF5RzF4vIWNpaZh-4">
          <mxGeometry relative="1" as="geometry" />
        </mxCell>
        <mxCell id="HpHNAsF5RzF4vIWNpaZh-2" value="Input numbers" style="shape=parallelogram;perimeter=parallelogramPerimeter;whiteSpace=wrap;html=1;fixedSize=1;" vertex="1" parent="1">
          <mxGeometry x="354" y="-990" width="120" height="60" as="geometry" />
        </mxCell>
        <mxCell id="HpHNAsF5RzF4vIWNpaZh-7" value="" style="edgeStyle=orthogonalEdgeStyle;rounded=0;orthogonalLoop=1;jettySize=auto;html=1;" edge="1" parent="1" source="HpHNAsF5RzF4vIWNpaZh-4" target="HpHNAsF5RzF4vIWNpaZh-6">
          <mxGeometry relative="1" as="geometry" />
        </mxCell>
        <mxCell id="HpHNAsF5RzF4vIWNpaZh-4" value="Output s...b" style="shape=parallelogram;perimeter=parallelogramPerimeter;whiteSpace=wrap;html=1;fixedSize=1;" vertex="1" parent="1">
          <mxGeometry x="354" y="-850" width="120" height="60" as="geometry" />
        </mxCell>
        <mxCell id="HpHNAsF5RzF4vIWNpaZh-9" value="" style="edgeStyle=orthogonalEdgeStyle;rounded=0;orthogonalLoop=1;jettySize=auto;html=1;" edge="1" parent="1" source="HpHNAsF5RzF4vIWNpaZh-6" target="HpHNAsF5RzF4vIWNpaZh-8">
          <mxGeometry relative="1" as="geometry" />
        </mxCell>
        <mxCell id="HpHNAsF5RzF4vIWNpaZh-6" value="Output b...s" style="shape=parallelogram;perimeter=parallelogramPerimeter;whiteSpace=wrap;html=1;fixedSize=1;" vertex="1" parent="1">
          <mxGeometry x="354" y="-710" width="120" height="60" as="geometry" />
        </mxCell>
        <mxCell id="HpHNAsF5RzF4vIWNpaZh-8" value="End" style="ellipse;whiteSpace=wrap;html=1;" vertex="1" parent="1">
          <mxGeometry x="354" y="-570" width="120" height="80" as="geometry" />
        </mxCell>
      </root>
    </mxGraphModel>
  </diagram>
</mxfile>
